<?xml version="1.0" encoding="utf-8"?>
<!-- Generator: Adobe Illustrator 15.1.0, SVG Export Plug-In  -->
<!DOCTYPE svg PUBLIC "-//W3C//DTD SVG 1.1//EN" "http://www.w3.org/Graphics/SVG/1.1/DTD/svg11.dtd" [
	<!ENTITY ns_flows "http://ns.adobe.com/Flows/1.0/">
]>
<svg version="1.1"
	 xmlns="http://www.w3.org/2000/svg" xmlns:xlink="http://www.w3.org/1999/xlink" xmlns:a="http://ns.adobe.com/AdobeSVGViewerExtensions/3.0/"
	 x="0px" y="0px" width="283px" height="283px" viewBox="-31.833 -30.788 283 283"
	 overflow="visible" enable-background="new -31.833 -30.788 283 283" xml:space="preserve">
<defs>
</defs>
<g>
	<defs>
		<rect id="SVGID_3_" x="2.167" y="2.207" width="211.465" height="211.465"/>
	</defs>
	<clipPath id="SVGID_4_">
		<use xlink:href="#SVGID_3_"  overflow="visible"/>
	</clipPath>
	<path clip-path="url(#SVGID_4_)" fill="#FFFFFF" d="M107.899,212.243c57.604,0,104.303-46.698,104.303-104.304
		c0-57.604-46.699-104.303-104.303-104.303C50.294,3.636,3.596,50.335,3.596,107.939C3.596,165.545,50.294,212.243,107.899,212.243"
		/>
</g>
<g>
	<defs>
		<path id="SVGID_2_" d="M3.596,107.939c0,57.605,46.699,104.304,104.303,104.304c57.605,0,104.304-46.699,104.304-104.304
			c0-57.604-46.699-104.303-104.304-104.303C50.295,3.636,3.596,50.335,3.596,107.939"/>
	</defs>
	<clipPath id="SVGID_5_">
		<use xlink:href="#SVGID_2_"  overflow="visible"/>
	</clipPath>
	<path clip-path="url(#SVGID_5_)" fill="#37AFE5" d="M185.041,29.594c0,0-20.552-13.252-43.522,7.951
		c-24.719,22.818-11.252,98.063-43.056,99.83c-44.245,2.458-35.78-58.589-96.296-32.688c-8.172,3.498,8.835,75.977,16.786,85.694
		c7.951,9.719,79.068,31.805,101.596,30.921c22.528-0.884,62.726-20.319,72.443-32.688s23.853-27.104,28.27-53.891
		c4.418-26.785-3.533-73.326-11.483-82.16C201.827,43.729,185.041,29.594,185.041,29.594"/>
	<rect x="69.076" y="0.821" clip-path="url(#SVGID_5_)" fill="#C6C6C6" width="1.767" height="216.065"/>
	<rect x="140.635" clip-path="url(#SVGID_5_)" fill="#C6C6C6" width="1.768" height="216.063"/>
	<rect x="46.5" y="162.995" clip-path="url(#SVGID_5_)" fill="#C6C6C6" width="172.112" height="1.767"/>
	<rect x="46.942" y="138.492" clip-path="url(#SVGID_5_)" fill="#C6C6C6" width="172.112" height="1.767"/>
	<rect x="47.002" y="113.08" clip-path="url(#SVGID_5_)" fill="#C6C6C6" width="172.112" height="1.767"/>
	<rect x="46.942" y="88.044" clip-path="url(#SVGID_5_)" fill="#C6C6C6" width="172.112" height="1.767"/>
	<rect x="47.002" y="62.945" clip-path="url(#SVGID_5_)" fill="#C6C6C6" width="172.112" height="1.767"/>
	<path clip-path="url(#SVGID_5_)" fill="#FFFFFF" d="M40.916,153.729h1.635v-0.709h-4.06v0.709h1.626v5.78h0.799V153.729z
		 M34.91,159.51h0.799v-3.036h2.408v-0.708h-2.408v-2.036h2.553v-0.709H34.91V159.51z M27.949,156.406h2.353v8.29h1.307v-11.031
		h-0.934c-0.062,1.56-1.339,1.73-2.726,1.809V156.406z"/>
	<path clip-path="url(#SVGID_5_)" fill="#FFFFFF" d="M40.916,128.796h1.635v-0.708h-4.06v0.708h1.626v5.779h0.799V128.796z
		 M34.91,134.575h0.799v-3.034h2.407v-0.709h-2.407v-2.036h2.553v-0.708H34.91V134.575z M33.728,138.55h-4.737
		c0.156-0.732,0.592-1.372,1.2-1.886l1.56-1.355c1.23-1.061,1.93-1.948,1.93-3.633c0-0.966-0.404-2.942-2.96-2.942
		c-2.259,0-3.131,1.416-3.131,3.504h1.37c0-0.623,0.046-2.384,1.746-2.384c1.185,0,1.606,1.027,1.606,1.979
		c0,1.216-0.577,1.886-1.466,2.65l-0.904,0.764c-1.231,1.061-2.383,2.462-2.383,4.519h6.169V138.55z"/>
	<path clip-path="url(#SVGID_5_)" fill="#FFFFFF" d="M40.916,103.864h1.635v-0.709h-4.06v0.709h1.626v5.779h0.799V103.864z
		 M34.911,109.643h0.798v-3.035h2.408v-0.708h-2.408v-2.036h2.553v-0.709h-3.351V109.643z M29.709,109.642h0.701
		c1.37,0,1.995,0.811,1.995,2.104c0,1.871-0.952,2.277-1.762,2.277c-1.262,0-1.762-1.169-1.762-2.183h-1.369v0.141
		c0,0.483,0.171,3.068,3.131,3.068c2.12,0,3.131-1.4,3.131-3.411c0-1.528-0.793-2.323-2.041-2.573v-0.031
		c1.154-0.28,1.714-1.262,1.714-2.368c0-1.231-0.529-2.866-2.835-2.866c-2.042,0-2.929,1.292-2.929,3.177h1.37
		c0-0.81,0.14-2.15,1.59-2.15c1.059,0,1.435,0.826,1.435,1.839c0,1.108-0.516,1.949-1.684,1.949h-0.685V109.642z"/>
	<path clip-path="url(#SVGID_5_)" fill="#37AFE5" d="M40.916,78.931h1.635v-0.708h-4.06v0.708h1.626v5.778h0.799V78.931z
		 M34.91,84.708h0.799v-3.034h2.407v-0.708h-2.407v-2.036h2.553v-0.708H34.91V84.708z M27.372,86.004v1.229h3.989v2.664h1.307
		v-2.664h1.247v-1.12h-1.247v-7.246h-1.307L27.372,86.004z M31.33,81.018h0.031v5.096h-2.805L31.33,81.018z"/>
	<path clip-path="url(#SVGID_5_)" fill="#37AFE5" d="M40.916,53.999h1.635V53.29h-4.06v0.709h1.626v5.778h0.799V53.999z
		 M34.91,59.776h0.799v-3.034h2.407v-0.709h-2.407v-2.035h2.553V53.29H34.91V59.776z M27.808,59.808l1.183,0.062
		c0-0.265,0.608-1.075,1.559-1.075c1.388,0,1.84,1.278,1.84,2.494c0,1.122-0.25,2.868-1.809,2.868c-1.465,0-1.684-1.449-1.684-2.026
		h-1.369c0,0.888,0.404,3.053,3.022,3.053c2.307,0,3.209-1.728,3.209-3.786c0-2.323-1.12-3.63-2.772-3.63
		c-0.749,0-1.482,0.28-1.934,0.825l-0.031-0.032l0.437-3.195h3.88v-1.213h-4.924L27.808,59.808z"/>
</g>
<g>
	<defs>
		<rect id="SVGID_1_" x="2.167" y="2.207" width="211.465" height="211.465"/>
	</defs>
	<clipPath id="SVGID_6_">
		<use xlink:href="#SVGID_1_"  overflow="visible"/>
	</clipPath>
	<circle clip-path="url(#SVGID_6_)" fill="none" stroke="#37AFE5" stroke-width="2.858" cx="107.899" cy="107.94" r="104.303"/>
</g>
</svg>
